<svg id="filled_outline" height="512" viewBox="0 0 512 512" width="512" xmlns="http://www.w3.org/2000/svg" data-name="filled outline"><path d="m432 392-7.27 43.64014-159.91-84.9502-57.01-30.29a56.05123 56.05123 0 0 1 -23.82-24.40994l-11.27-22.54-36.72-73.45h-40l-8 80 16 16v16h-40l-16-16v-88a55.99742 55.99742 0 0 1 56-56h92.31a31.99426 31.99426 0 0 1 30.13 21.24l23.53 65.88013 6.03 16.87987 45.85 35.42993z" fill="#ffceb6"/><path d="m226.44 173.24a31.99426 31.99426 0 0 0 -30.13-21.24h-76.31v48h16l36.72 73.45 77.25-34.32983z" fill="#548aff"/><path d="m176 112 16-16h32v32a32 32 0 0 1 -32 32 32 32 0 0 1 -32-32v-16z" fill="#ffceb6"/><path d="m224 96v-8a24 24 0 0 0 -24-24 23.99994 23.99994 0 0 0 -14.4 4.8l-25.6 19.2v24h16l16-16z" fill="#c78640"/><path d="m432 392 40-24 16 8-40 72-23.273-12.364z" fill="#e0edff"/><path d="m24 312h112v40h-112z" fill="#8098ab"/><path d="m64 352h32v40h-32z" fill="#62798c"/><path d="m24 392h104v32h-104z" fill="#8098ab"/><path d="m24 424 8 24h24l8-24z" fill="#718799"/><path d="m88 424 8 24h24l8-24z" fill="#718799"/><path d="m301.85 291.42993-37.03 59.26-57.01-30.29a56.05123 56.05123 0 0 1 -23.82-24.40993l-11.27-22.54 77.25-34.32983 6.03 16.87983z" fill="#ffb401"/><path d="m16.41064 426.53027 8 24a7.99967 7.99967 0 0 0 7.58936 5.46973h24a7.99967 7.99967 0 0 0 7.58936-5.46973l6.17675-18.53027h12.46778l6.17675 18.53027a7.99967 7.99967 0 0 0 7.58936 5.46973h24a7.99967 7.99967 0 0 0 7.58936-5.46973l8-24-.00391-.00122a7.97749 7.97749 0 0 0 .41455-2.52905v-32a8.00008 8.00008 0 0 0 -8-8h-24v-24h32a8.00008 8.00008 0 0 0 8-8v-40a8.00008 8.00008 0 0 0 -8-8h-24v-8a8.00076 8.00076 0 0 0 -2.34326-5.65723l-13.31934-13.31933 6.90235-69.02344h27.81591l45.78321 91.56641a63.64367 63.64367 0 0 0 27.21679 27.89648l240.19092 127.60156a7.99592 7.99592 0 0 0 10.74658-3.17968l40-72a7.99948 7.99948 0 0 0 -3.41552-11.04l-16-8a7.99823 7.99823 0 0 0 -7.69336.29492l-35.31543 21.18941-169.82324-131.22656-36.5564-102.35889a39.75766 39.75766 0 0 0 5.81079-20.74365v-40a32.00037 32.00037 0 0 0 -51.19971-25.60059l-25.60009 19.2002a8.00229 8.00229 0 0 0 -3.2002 6.40039v40a39.75984 39.75984 0 0 0 3.35 16h-51.35a64.07239 64.07239 0 0 0 -64 64v88a8.00076 8.00076 0 0 0 2.34326 5.65723l2.34274 2.34277h-20.686a8.00008 8.00008 0 0 0 -8 8v40a8.00008 8.00008 0 0 0 8 8h32v24h-32a8.00008 8.00008 0 0 0 -8 8v32a7.97749 7.97749 0 0 0 .41455 2.529zm33.82325 13.46973h-12.46778l-2.66668-8h17.80114zm51.53222 0-2.66668-8h17.80114l-2.66668 8zm26.23389-248v-32h40v-.022a39.88923 39.88923 0 0 0 45.76666 1.55468l26.17627 73.29371-63.479 28.21289-27.51959-55.03928h35.05566v-16zm88-64a24 24 0 0 1 -48 0v-8h8a8.00035 8.00035 0 0 0 5.65674-2.34277l13.65726-13.65723h20.686zm202.66357 295.35645-142.50946-75.708 27.80121-44.48194 119.367 92.2378zm53.68653-46.23731 4.59912 2.29981-32.1294 57.833-11.25494-5.97924 5.71887-34.31324zm-181.11841-83.78467-29.24286 46.78858-50.42634-26.78905a47.74041 47.74041 0 0 1 -20.41308-20.92382l-7.52264-15.04541 61.71283-27.42777 3.12622 8.75342a7.99667 7.99667 0 0 0 2.64258 3.63965zm-100.83228-218.13427a16.00024 16.00024 0 0 1 25.60059 12.7998h-24a8.00035 8.00035 0 0 0 -5.65674 2.34277l-13.65726 13.65723h-4.686v-12zm-134.39941 217.48632v-84.68652a48.054 48.054 0 0 1 48-48h8v32h-16a8.00035 8.00035 0 0 0 -7.96045 7.2041l-8 80a8.00086 8.00086 0 0 0 2.30371 6.45313l13.65674 13.65625v4.68652h-28.686zm-24 27.31348h96v24h-96zm40 40h16v24h-16zm-40 40h88v16h-88z"/></svg>